<mxfile host="app.diagrams.net" modified="2024-04-19T11:34:33.486Z" agent="Mozilla/5.0 (Windows NT 10.0; Win64; x64) AppleWebKit/537.36 (KHTML, like Gecko) Chrome/123.0.0.0 Safari/537.36" etag="j7SffWI09GZOCVfJizzn" version="24.2.5" type="github">
  <diagram name="Página-1" id="uk3YxrTndMwkcGF-BGCp">
    <mxGraphModel dx="2049" dy="1103" grid="1" gridSize="10" guides="1" tooltips="1" connect="1" arrows="1" fold="1" page="1" pageScale="1" pageWidth="827" pageHeight="1169" math="0" shadow="0">
      <root>
        <mxCell id="0" />
        <mxCell id="1" parent="0" />
        <mxCell id="Awy9c9wadHYOCCZXIFnp-1" value="" style="rounded=0;whiteSpace=wrap;html=1;" vertex="1" parent="1">
          <mxGeometry x="60" y="70" width="760" height="990" as="geometry" />
        </mxCell>
        <mxCell id="Awy9c9wadHYOCCZXIFnp-2" value="FOTO" style="ellipse;whiteSpace=wrap;html=1;aspect=fixed;" vertex="1" parent="1">
          <mxGeometry x="400" y="130" width="80" height="80" as="geometry" />
        </mxCell>
        <mxCell id="Awy9c9wadHYOCCZXIFnp-3" value="BOTÃO REDES SOCIAIS" style="rounded=1;whiteSpace=wrap;html=1;" vertex="1" parent="1">
          <mxGeometry x="670" y="90" width="120" height="60" as="geometry" />
        </mxCell>
        <mxCell id="Awy9c9wadHYOCCZXIFnp-4" value="BOTÃO HOME" style="rounded=1;whiteSpace=wrap;html=1;" vertex="1" parent="1">
          <mxGeometry x="550" y="90" width="120" height="60" as="geometry" />
        </mxCell>
        <mxCell id="Awy9c9wadHYOCCZXIFnp-5" value="SOBRE MIM" style="rounded=0;whiteSpace=wrap;html=1;" vertex="1" parent="1">
          <mxGeometry x="70" y="250" width="400" height="70" as="geometry" />
        </mxCell>
        <mxCell id="Awy9c9wadHYOCCZXIFnp-6" value="QUALIDADES" style="rounded=0;whiteSpace=wrap;html=1;" vertex="1" parent="1">
          <mxGeometry x="70" y="350" width="170" height="140" as="geometry" />
        </mxCell>
        <mxCell id="Awy9c9wadHYOCCZXIFnp-7" value="TABELA" style="rounded=0;whiteSpace=wrap;html=1;" vertex="1" parent="1">
          <mxGeometry x="70" y="510" width="240" height="90" as="geometry" />
        </mxCell>
        <mxCell id="Awy9c9wadHYOCCZXIFnp-8" value="CONTATO" style="rounded=0;whiteSpace=wrap;html=1;" vertex="1" parent="1">
          <mxGeometry x="70" y="630" width="160" height="60" as="geometry" />
        </mxCell>
        <mxCell id="Awy9c9wadHYOCCZXIFnp-9" value="FORMULARIO" style="rounded=0;whiteSpace=wrap;html=1;" vertex="1" parent="1">
          <mxGeometry x="70" y="730" width="230" height="170" as="geometry" />
        </mxCell>
        <mxCell id="Awy9c9wadHYOCCZXIFnp-11" value="REDES SOCIAIS" style="whiteSpace=wrap;html=1;aspect=fixed;" vertex="1" parent="1">
          <mxGeometry x="70" y="960" width="80" height="80" as="geometry" />
        </mxCell>
        <mxCell id="Awy9c9wadHYOCCZXIFnp-12" value="BOTÃO WHATSAPP" style="ellipse;whiteSpace=wrap;html=1;aspect=fixed;" vertex="1" parent="1">
          <mxGeometry x="710" y="950" width="80" height="80" as="geometry" />
        </mxCell>
      </root>
    </mxGraphModel>
  </diagram>
</mxfile>
